<?xml version="1.0" encoding="UTF-8" standalone="no"?>
<svg width="512px" height="512px" viewBox="0 0 512 512" version="1.1" xmlns="http://www.w3.org/2000/svg" xmlns:xlink="http://www.w3.org/1999/xlink" xmlns:sketch="http://www.bohemiancoding.com/sketch/ns">
    <title>tcpInsignia_2014</title>
    <description>Created with Sketch (http://www.bohemiancoding.com/sketch)</description>
    <defs></defs>
    <g id="Page-1" stroke="none" stroke-width="1" fill="none" fill-rule="evenodd" sketch:type="MSPage">
        <g id="tcpInsignia_2014" sketch:type="MSArtboardGroup">
            <rect id="Background" fill="#E65050" sketch:type="MSShapeGroup" x="0" y="0" width="512" height="512"></rect>
            <g id="Insignia" sketch:type="MSLayerGroup" transform="translate(77.000000, 101.000000)">
                <g id="Bottom-L" transform="translate(85.000000, 210.000000) scale(1, -1) translate(-85.000000, -210.000000) translate(0.000000, 110.000000)" fill="#3F3F3F" sketch:type="MSShapeGroup">
                    <path d="M0,110 L0,128 L170.005025,18 L170.005025,0 L0,110 Z" id="Rectangle-1"></path>
                    <path d="M0,146 L0,164 L170.005025,54 L170.005025,36 L0,146 Z" id="Rectangle-1-copy"></path>
                    <path d="M0,182 L0,200 L170.005025,90 L170.005025,72 L0,182 Z" id="Rectangle-1-copy-2"></path>
                </g>
                <g id="Top-L" fill="#FFFFFF" sketch:type="MSShapeGroup">
                    <path d="M0,110 L0,128 L170.005025,18 L170.005025,0 L0,110 Z" id="Rectangle-1"></path>
                    <path d="M0,146 L0,164 L170.005025,54 L170.005025,36 L0,146 Z" id="Rectangle-1-copy"></path>
                    <path d="M0,182 L0,200 L170.005025,90 L170.005025,72 L0,182 Z" id="Rectangle-1-copy-2"></path>
                </g>
                <g id="Top-R" transform="translate(273.000000, 100.000000) scale(-1, 1) translate(-273.000000, -100.000000) translate(188.000000, 0.000000)" fill="#3F3F3F" sketch:type="MSShapeGroup">
                    <path d="M-5.68434189e-14,110 L-5.68434189e-14,128 L170.005025,18 L170.005025,0 L-5.68434189e-14,110 Z" id="Rectangle-1"></path>
                    <path d="M-5.68434189e-14,146 L-5.68434189e-14,164 L170.005025,54 L170.005025,36 L-5.68434189e-14,146 Z" id="Rectangle-1-copy"></path>
                    <path d="M-5.68434189e-14,182 L-5.68434189e-14,200 L170.005025,90 L170.005025,72 L-5.68434189e-14,182 Z" id="Rectangle-1-copy-2"></path>
                </g>
                <g id="Bottom-R" transform="translate(273.000000, 210.000000) scale(-1, -1) translate(-273.000000, -210.000000) translate(188.000000, 110.000000)" fill="#FFFFFF" sketch:type="MSShapeGroup">
                    <path d="M-5.68434189e-14,110 L-5.68434189e-14,128 L170.005025,18 L170.005025,0 L-5.68434189e-14,110 Z" id="Rectangle-1"></path>
                    <path d="M-5.68434189e-14,146 L-5.68434189e-14,164 L170.005025,54 L170.005025,36 L-5.68434189e-14,146 Z" id="Rectangle-1-copy"></path>
                    <path d="M-5.68434189e-14,182 L-5.68434189e-14,200 L170.005025,90 L170.005025,72 L-5.68434189e-14,182 Z" id="Rectangle-1-copy-2"></path>
                </g>
            </g>
        </g>
    </g>
</svg>