<?xml version="1.0" encoding="utf-8"?>
<!-- Generated by IcoMoon.io -->
<!DOCTYPE svg PUBLIC "-//W3C//DTD SVG 1.1//EN" "http://www.w3.org/Graphics/SVG/1.1/DTD/svg11.dtd">
<svg version="1.1" xmlns="http://www.w3.org/2000/svg" xmlns:xlink="http://www.w3.org/1999/xlink" width="64" height="64" viewBox="0 0 64 64">
<g>
</g>
	<path d="M50.667 18.667h-37.333c-2.944 0-5.333 2.389-5.333 5.333v24c0 2.944 2.389 5.333 5.333 5.333h37.333c2.944 0 5.333-2.389 5.333-5.333v-24c0-2.944-2.389-5.333-5.333-5.333zM24.843 38.176l4.272 3.733c0.813 0.709 1.843 1.061 2.885 1.061s2.072-0.355 2.885-1.061l4.272-3.733-0.099 0.099 9.723 9.723h-33.563l9.723-9.723-0.099-0.099zM13.333 46.115v-18.008l9.605 8.403-9.605 9.605zM41.061 36.509l9.605-8.403v18l-9.605-9.597zM50.667 24v0.56l-17.536 15.344c-0.605 0.528-1.656 0.528-2.261 0l-17.536-15.344v-0.56h37.333z" fill="#4d6b80" />
</svg>
