<?xml version="1.0" encoding="utf-8"?>
<!-- Generated by IcoMoon.io -->
<!DOCTYPE svg PUBLIC "-//W3C//DTD SVG 1.1//EN" "http://www.w3.org/Graphics/SVG/1.1/DTD/svg11.dtd">
<svg version="1.1" xmlns="http://www.w3.org/2000/svg" xmlns:xlink="http://www.w3.org/1999/xlink" width="64" height="64" viewBox="0 0 64 64">
<g>
</g>
	<path d="M56.877 19.219c0-3.232-1.259-6.272-3.544-8.552s-5.323-3.544-8.552-3.544c-3.197 0-6.205 1.235-8.48 3.477-0.072 0.067-21.245 21.237-21.245 21.237-0.995 0.995-1.912 2.427-2.579 4.037-0.52 1.261-5.277 15.635-6.229 18.504-0.317 0.955-0.067 2.011 0.645 2.723 0.504 0.504 1.187 0.781 1.885 0.781 0.28 0 0.563-0.048 0.837-0.136 2.869-0.947 17.24-5.709 18.501-6.229 1.608-0.661 3.040-1.579 4.040-2.579l5.752-5.749c0.067 0.003 0.133 0.027 0.203 0.027 1.707 0 3.413-0.651 4.717-1.952l12-12c1.856-1.853 2.365-4.531 1.568-6.859 0.285-1.029 0.48-2.088 0.48-3.187zM25.24 46.896c-1.083 0.381-3.053 1.048-5.435 1.843l-4.544-4.544c0.803-2.384 1.469-4.357 1.843-5.435l8.136 8.136zM14.315 47.021l2.664 2.664c-1.315 0.437-2.667 0.888-3.995 1.331 0.443-1.328 0.893-2.683 1.331-3.995zM34.843 38.72l-6.453 6.453c-0.163 0.163-0.403 0.317-0.627 0.48l-9.413-9.411c0.163-0.224 0.32-0.469 0.48-0.624l19.016-19.016 7.283 7.283-9.84 9.84c-1.368 1.365-1.464 3.437-0.445 4.995zM51.056 25.496l-12 12c-0.261 0.264-0.603 0.389-0.944 0.389s-0.683-0.131-0.944-0.389c-0.52-0.517-0.52-1.365 0-1.885l12-12c0.517-0.517 1.365-0.517 1.885 0 0.523 0.52 0.525 1.363 0.003 1.885zM51.341 20.792c-1.384-0.448-2.955-0.165-4.056 0.933l-0.272 0.272-7.283-7.283 0.208-0.208c2.624-2.613 7.072-2.616 9.621-0.061 1.277 1.277 1.981 2.976 1.981 4.781 0.003 0.531-0.080 1.051-0.2 1.565z" fill="#4d6b80" />
</svg>
