<?xml version="1.0" encoding="utf-8"?>
<!-- Generated by IcoMoon.io -->
<!DOCTYPE svg PUBLIC "-//W3C//DTD SVG 1.1//EN" "http://www.w3.org/Graphics/SVG/1.1/DTD/svg11.dtd">
<svg version="1.1" xmlns="http://www.w3.org/2000/svg" xmlns:xlink="http://www.w3.org/1999/xlink" width="64" height="64" viewBox="0 0 64 64">
<g>
</g>
	<path d="M38.493 34.595c0.717 0 1.312 0.355 1.829 1.056 0.512 0.707 0.784 1.568 0.784 2.6 0 1.027-0.272 1.896-0.784 2.595-0.515 0.707-1.112 1.056-1.829 1.056-0.741 0-1.392-0.349-1.907-1.056-0.512-0.699-0.784-1.568-0.784-2.595 0-1.032 0.272-1.893 0.784-2.6 0.512-0.704 1.163-1.056 1.907-1.056zM47.667 25.104c1.989 2.163 3 4.787 3 7.875 0 1.995-0.229 3.795-0.691 5.395-0.467 1.592-1.051 2.891-1.744 3.891-0.704 1.003-1.568 1.88-2.597 2.637-1.029 0.763-1.976 1.312-2.84 1.661-0.867 0.352-1.853 0.621-2.963 0.816-1.112 0.189-1.936 0.296-2.515 0.328-0.568 0.024-1.168 0.037-1.827 0.037-0.147 0-0.648 0.011-1.459 0.040-0.803 0.035-1.493 0.043-2.032 0.043s-1.229-0.008-2.032-0.043c-0.811-0.029-1.312-0.040-1.459-0.040-0.656 0-1.259-0.013-1.827-0.037-0.581-0.032-1.403-0.139-2.515-0.328-1.128-0.192-2.096-0.464-2.963-0.816-0.864-0.349-1.813-0.899-2.837-1.661-1.032-0.757-1.896-1.635-2.6-2.637-0.696-1-1.277-2.299-1.744-3.891-0.461-1.6-0.691-3.4-0.691-5.395 0-3.088 1.011-5.715 3-7.875-0.219-0.109-0.227-1.192-0.021-3.245 0.168-2.056 0.605-3.952 1.32-5.685 2.491 0.264 5.573 1.677 9.256 4.216 1.243-0.317 2.936-0.488 5.112-0.488 2.272 0 3.976 0.171 5.115 0.491 1.677-1.133 3.28-2.056 4.813-2.757 1.557-0.696 2.68-1.109 3.384-1.219l1.056-0.24c0.72 1.731 1.157 3.627 1.323 5.685 0.203 2.051 0.195 3.133-0.024 3.243zM32.080 45.957c4.501 0 7.877-0.539 10.189-1.619 2.28-1.077 3.445-3.301 3.445-6.656 0-1.947-0.728-3.573-2.192-4.875-0.741-0.701-1.635-1.133-2.637-1.296-1-0.163-2.531-0.163-4.587 0-2.051 0.165-3.461 0.24-4.219 0.24-1.027 0-2.133-0.048-3.517-0.157-1.387-0.107-2.475-0.173-3.261-0.208-0.784-0.024-1.624 0.072-2.555 0.288-0.92 0.219-1.677 0.597-2.275 1.133-1.389 1.251-2.107 2.872-2.107 4.875 0 3.355 1.136 5.579 3.413 6.656 2.267 1.080 5.635 1.619 10.139 1.619h0.163zM25.589 34.595c0.715 0 1.312 0.355 1.827 1.056 0.512 0.707 0.784 1.568 0.784 2.6 0 1.027-0.272 1.896-0.784 2.595-0.512 0.707-1.112 1.056-1.827 1.056-0.744 0-1.392-0.349-1.909-1.056-0.512-0.699-0.784-1.568-0.784-2.595 0-1.032 0.272-1.893 0.784-2.6 0.515-0.704 1.163-1.056 1.909-1.056z" fill="#4d6b80" />
</svg>
