<?xml version="1.0" encoding="utf-8"?>
<!-- Generated by IcoMoon.io -->
<!DOCTYPE svg PUBLIC "-//W3C//DTD SVG 1.1//EN" "http://www.w3.org/Graphics/SVG/1.1/DTD/svg11.dtd">
<svg version="1.1" xmlns="http://www.w3.org/2000/svg" xmlns:xlink="http://www.w3.org/1999/xlink" width="64" height="64" viewBox="0 0 64 64">
<g>
</g>
	<path d="M50.373 18.699c2.155-1.323 3.581-3.128 4.28-5.424-2.096 1.112-4.184 1.875-6.269 2.296-1.875-2.016-4.248-3.040-7.093-3.040-2.781 0-5.131 0.976-7.048 2.875-1.907 1.912-2.869 4.235-2.869 6.947 0 0.824 0.104 1.56 0.312 2.184-8.203-0.28-14.992-3.683-20.341-10.232-0.907 1.603-1.36 3.235-1.36 4.923 0 3.469 1.464 6.219 4.387 8.237-1.667-0.141-3.136-0.563-4.387-1.253 0 2.477 0.728 4.547 2.187 6.368 1.464 1.803 3.344 2.952 5.64 3.443-0.832 0.213-1.709 0.315-2.611 0.315-0.832 0-1.421-0.069-1.771-0.221 0.613 2.019 1.771 3.656 3.443 4.909 1.667 1.259 3.584 1.923 5.739 1.981-3.552 2.787-7.613 4.165-12.208 4.165-1.125 0-1.923-0.016-2.405-0.101 4.525 2.939 9.563 4.397 15.136 4.397 5.704 0 10.744-1.445 15.131-4.336 4.387-2.875 7.624-6.421 9.704-10.597 2.091-4.171 3.125-8.512 3.125-13.045v-1.248c2.021-1.52 3.656-3.232 4.907-5.123-1.813 0.781-3.688 1.312-5.627 1.581z" fill="#4d6b80" />
</svg>
